<svg version="1.1" id="Layer_1" xmlns="http://www.w3.org/2000/svg" xmlns:xlink="http://www.w3.org/1999/xlink" x="0px" y="0px"
	 width="100%" viewBox="0 0 1278 395" enable-background="new 0 0 1278 395" xml:space="preserve">
<path fill="#010101" opacity="1.000000" stroke="none" 
	d="
M838.000000,396.000000 
	C558.666687,396.000000 279.833405,396.000000 1.000075,396.000000 
	C1.000050,264.333374 1.000050,132.666763 1.000025,1.000110 
	C426.999908,1.000073 852.999817,1.000073 1278.999756,1.000037 
	C1278.999878,132.666550 1278.999878,264.333099 1279.000000,395.999817 
	C1132.166626,396.000000 985.333313,396.000000 838.000000,396.000000 
M305.355011,199.291061 
	C304.932190,190.039383 304.577789,180.783478 304.004608,171.541122 
	C303.928436,170.312759 302.741150,169.153290 302.151337,167.115585 
	C300.101257,153.032974 294.557831,140.416962 285.975891,128.317993 
	C284.177460,125.891449 282.378998,123.464897 280.667419,120.541641 
	C280.528168,120.095993 280.507416,119.552948 280.232666,119.218689 
	C267.039001,103.168060 250.262726,92.179970 230.721542,85.730133 
	C204.421219,77.049355 178.189178,78.065590 152.742813,89.144768 
	C145.777969,92.177216 139.618011,97.058311 132.426163,101.389938 
	C131.541656,101.754646 130.457596,101.905952 129.803772,102.517349 
	C123.834793,108.098915 117.138046,113.144547 112.222061,119.550224 
	C105.655792,128.106262 100.488701,137.736099 94.034966,147.259140 
	C93.833267,147.516159 93.573921,147.746002 93.438087,148.034073 
	C85.590111,164.677063 83.470657,182.369293 84.591377,200.453888 
	C84.930542,205.926819 87.208138,211.279633 88.453773,217.556137 
	C88.644279,218.388947 88.834785,219.221771 88.502037,220.472900 
	C89.069702,221.385666 89.637367,222.298416 90.407822,224.140366 
	C90.555237,224.421005 90.702660,224.701660 90.481209,225.600967 
	C91.390274,227.417984 92.299339,229.235001 93.482834,232.224655 
	C93.636795,232.595398 93.790756,232.966141 93.758041,233.241867 
	C93.758041,233.241867 93.935112,233.220581 94.207420,234.033066 
	C96.966919,239.029602 99.726418,244.026123 102.389809,249.417923 
	C102.389809,249.417923 102.676796,249.707306 102.676796,249.707306 
	C102.676796,249.707306 103.084534,249.697296 103.318321,250.202621 
	C103.604523,250.428848 103.890724,250.655090 104.170761,251.545074 
	C104.956604,252.525864 105.742447,253.506653 106.831665,255.097473 
	C114.341393,262.650146 121.451981,270.667328 129.505402,277.587250 
	C134.618683,281.980865 141.133820,284.743011 147.365509,288.680908 
	C147.514740,288.794464 147.663971,288.907990 147.653183,289.042969 
	C147.653183,289.042969 147.738785,289.006287 148.507263,289.313751 
	C150.999832,290.194244 153.492401,291.074738 156.395050,292.512970 
	C157.277893,292.711975 158.160721,292.910950 159.448746,293.433289 
	C159.620697,293.416107 159.792633,293.398895 160.123642,293.566193 
	C160.123642,293.566193 160.366241,293.588318 160.785172,294.157654 
	C161.680496,294.587555 162.541855,295.118469 163.476120,295.432556 
	C189.599579,304.214783 215.376495,302.721039 240.344849,291.583466 
	C248.529449,287.932648 255.704773,282.019226 264.001892,277.069061 
	C266.754150,274.785553 269.506439,272.502075 272.259918,270.289246 
	C272.259918,270.289246 272.240723,270.240295 272.839752,269.783417 
	C284.518921,258.422668 293.997681,245.382996 299.251129,229.990707 
	C302.286926,221.096100 302.961792,211.395660 304.909210,201.367050 
	C304.895508,200.888565 304.881805,200.410080 305.355011,199.291061 
M614.677002,226.287766 
	C614.873413,226.920197 615.069824,227.552612 615.400818,229.047821 
	C615.675659,230.855377 615.848816,232.685349 616.241455,234.466934 
	C619.236084,248.052185 625.874023,259.363861 640.266235,262.102478 
	C652.562622,264.442383 665.353638,264.223114 677.937744,264.922974 
	C678.807495,264.971375 680.550171,263.268097 680.576538,262.342102 
	C680.792908,254.735138 680.698608,247.119324 680.698608,240.187500 
	C672.322937,240.187500 664.858154,240.501404 657.430115,240.113190 
	C646.555420,239.544815 641.393127,234.131744 641.218689,223.288574 
	C640.948303,206.479416 641.023071,189.664719 640.753235,172.855545 
	C640.697144,169.362701 642.155579,168.669693 645.201599,168.714035 
	C654.687622,168.852081 664.176636,168.811325 673.664368,168.794922 
	C675.415588,168.791901 677.166382,168.578949 679.190063,168.444809 
	C679.190063,160.681564 679.190063,153.445984 679.190063,145.568573 
	C666.193665,145.568573 653.477722,145.568573 640.335266,145.568573 
	C640.335266,130.309784 640.335266,115.689125 640.916565,100.939529 
	C641.064758,99.905891 641.212952,98.872261 641.361145,97.838623 
	C640.921204,97.922699 640.481201,98.006775 639.130310,97.829620 
	C631.394165,97.874893 623.658020,97.920166 615.782104,97.495384 
	C615.442139,97.973320 615.102173,98.451256 614.707031,99.874084 
	C614.832275,141.954605 614.957458,184.035110 614.677002,226.287766 
M1044.337280,149.168976 
	C1027.979980,141.982681 1010.912476,143.935608 993.373047,145.942734 
	C993.373047,129.669357 993.373047,114.083908 993.373047,98.339653 
	C984.320312,98.339653 975.794189,98.339653 968.016357,98.339653 
	C968.016357,153.462769 968.016357,208.128525 968.016357,263.298187 
	C981.250610,264.254333 993.507263,265.602478 1005.787659,265.874207 
	C1014.889954,266.075653 1024.175537,265.729523 1033.111938,264.131348 
	C1053.465210,260.491364 1067.362671,246.125244 1069.253174,225.590591 
	C1070.542236,211.588425 1070.304932,197.279587 1069.069824,183.255844 
	C1067.712158,167.840057 1059.329956,156.263062 1044.337280,149.168976 
M787.735657,171.801056 
	C784.091492,159.462631 775.954895,151.382523 763.777222,147.776169 
	C742.628906,141.513214 721.281921,143.203827 699.984253,147.148727 
	C698.954956,147.339386 697.346191,148.575211 697.322021,149.364578 
	C697.111084,156.253265 697.200195,163.151169 697.200195,169.682465 
	C710.035034,168.667755 721.772400,167.192520 733.528503,167.022751 
	C740.211914,166.926224 747.132080,168.280792 753.573364,170.219086 
	C761.260986,172.532410 764.634399,179.979996 762.696167,189.339401 
	C751.178467,189.339401 739.388611,189.070602 727.617798,189.428513 
	C718.946960,189.692154 711.171204,192.946594 704.006348,197.960403 
	C690.317078,207.539886 685.136658,228.371658 692.206604,243.469101 
	C698.125061,256.107635 708.305298,261.784302 721.316406,264.018646 
	C742.629639,267.678558 763.813049,265.172577 785.042480,263.123383 
	C789.192017,262.722839 789.818726,260.848877 789.810181,257.372314 
	C789.754272,234.555283 789.945007,211.736969 789.765625,188.921341 
	C789.722778,183.474075 788.583130,178.035431 787.735657,171.801056 
M1180.613892,238.483643 
	C1178.831543,238.093948 1176.884399,237.030563 1175.292603,237.419983 
	C1161.126831,240.885681 1146.817627,243.075958 1132.254028,241.424683 
	C1117.028931,239.698425 1111.468262,233.293427 1110.270630,218.035904 
	C1109.899414,213.305847 1111.173218,211.587402 1116.153198,211.640991 
	C1136.799438,211.863190 1157.449585,211.720932 1178.098389,211.712692 
	C1180.020386,211.711929 1181.942383,211.712585 1185.195435,211.712585 
	C1184.367432,199.984711 1184.674438,188.885132 1182.596191,178.251785 
	C1178.781982,158.737335 1165.925293,147.560440 1146.322998,144.994263 
	C1138.665527,143.991791 1130.627686,143.924194 1122.999634,145.043488 
	C1101.519653,148.195312 1086.825562,162.771255 1084.739258,184.412079 
	C1083.391602,198.391907 1083.442139,212.800797 1085.221069,226.716339 
	C1087.668823,245.862366 1098.797241,259.103271 1118.266235,263.583527 
	C1138.122559,268.152954 1158.000854,266.225403 1177.719604,262.227875 
	C1179.006958,261.966888 1180.729858,259.684662 1180.794067,258.276276 
	C1181.081665,251.965561 1180.841919,245.630814 1180.613892,238.483643 
M471.907440,233.499969 
	C471.907440,243.609039 471.907440,253.718124 471.907440,263.899292 
	C481.276215,263.899292 489.955017,263.899292 498.828217,263.899292 
	C498.828217,244.613235 498.904938,225.802322 498.790894,206.992569 
	C498.744476,199.339188 498.767273,191.634277 497.919434,184.046585 
	C495.484558,162.256119 482.523651,148.337433 460.903290,144.846329 
	C452.935455,143.559723 444.611481,143.345490 436.552338,143.967941 
	C411.232178,145.923538 395.709625,161.138519 392.578705,186.292740 
	C392.189270,189.421402 392.138458,192.606964 392.134125,195.766449 
	C392.104645,217.253647 392.122711,238.740936 392.155151,260.228149 
	C392.157043,261.483154 392.417419,262.737762 392.558289,263.999634 
	C401.183655,263.999634 409.421692,263.999634 418.128479,263.999634 
	C418.128479,261.996307 418.130737,260.355560 418.128113,258.714813 
	C418.101593,242.225388 417.992371,225.735519 418.085266,209.246765 
	C418.125519,202.099915 418.142761,194.905228 418.952240,187.821625 
	C420.156860,177.280014 426.838531,170.072586 437.249908,168.032639 
	C441.910919,167.119385 446.893036,166.947586 451.620483,167.454773 
	C461.881805,168.555679 468.179230,174.671967 470.574677,184.630646 
	C471.307831,187.678558 471.640137,190.885391 471.682953,194.025894 
	C471.857727,206.849228 471.849243,219.675034 471.907440,233.499969 
M596.941528,210.601440 
	C592.288696,207.222198 588.052612,202.843002 582.888367,200.690826 
	C574.487671,197.189850 565.439697,195.269318 556.744324,192.437698 
	C551.861694,190.847702 547.044250,188.974472 542.373657,186.842865 
	C538.653809,185.145203 537.341858,181.775574 537.557312,177.744370 
	C537.767395,173.813873 539.754272,171.095016 543.299988,169.720474 
	C545.593872,168.831253 548.108704,167.980331 550.515869,168.003647 
	C563.143066,168.126022 575.767822,168.519714 588.392517,168.853256 
	C590.626099,168.912262 592.855469,169.132492 595.509155,169.305878 
	C595.509155,161.209396 595.509155,153.759781 595.509155,146.017990 
	C593.024719,145.797363 590.406799,145.539291 587.784607,145.336212 
	C572.340942,144.140182 556.870239,142.751480 541.480774,145.614746 
	C532.563782,147.273773 524.397644,150.506348 518.217041,157.776627 
	C508.021393,169.769760 506.994049,197.121094 527.993225,207.049667 
	C533.392944,209.602707 539.046021,211.662689 544.688232,213.649582 
	C552.679443,216.463699 560.841553,218.802200 568.784180,221.739975 
	C572.640259,223.166214 574.924500,226.389786 574.612915,230.738266 
	C574.313721,234.912537 571.956482,237.858459 568.171265,239.516312 
	C566.359131,240.309982 564.373596,241.198151 562.466064,241.199326 
	C553.706421,241.204712 544.882568,241.496307 536.206848,240.544418 
	C529.058533,239.760117 522.085815,237.375702 514.883789,235.664413 
	C514.883789,243.631607 514.772034,251.257172 515.002502,258.872345 
	C515.037598,260.034058 516.504822,261.966125 517.565125,262.162506 
	C537.144470,265.788666 556.895203,268.384277 576.529297,263.358948 
	C599.648193,257.441681 609.701782,231.612427 596.941528,210.601440 
M830.416443,245.221405 
	C832.305664,250.555740 834.384949,255.833145 836.006226,261.247711 
	C836.854370,264.080383 838.319458,264.758911 841.060852,264.683350 
	C847.551392,264.504547 854.076111,264.293549 860.537720,264.767914 
	C865.147034,265.106323 866.686218,263.194122 868.058411,259.131073 
	C877.751709,230.429077 887.724731,201.821503 897.625671,173.189743 
	C900.703857,164.288269 903.835388,155.405243 907.115234,146.019485 
	C898.786682,146.019485 891.316406,146.207458 883.862610,145.938538 
	C880.249451,145.808182 878.638977,146.995880 877.558044,150.501740 
	C869.858826,175.473785 861.937805,200.377487 854.076050,225.299332 
	C853.501770,227.119797 852.838013,228.912018 851.785034,231.967560 
	C850.706970,229.528381 850.083069,228.409561 849.702698,227.213318 
	C841.481384,201.358002 833.307556,175.487549 825.031006,149.650009 
	C824.593628,148.284683 823.360962,146.147217 822.447205,146.120438 
	C813.398010,145.855270 804.338013,145.959930 794.306091,145.959930 
	C806.510864,179.521149 818.324097,212.005463 830.416443,245.221405 
M928.546021,264.533783 
	C933.824585,264.533783 939.103149,264.533783 944.225037,264.533783 
	C944.225037,224.642380 944.225037,185.585983 944.225037,146.546967 
	C935.244873,146.546967 926.859131,146.546967 918.718689,146.546967 
	C918.718689,186.145554 918.718689,225.197495 918.718689,264.535675 
	C921.961304,264.535675 924.767395,264.535675 928.546021,264.533783 
M360.488983,264.644196 
	C364.726166,264.644196 368.963318,264.644196 373.203461,264.644196 
	C373.203461,251.881668 373.226746,240.235764 373.198669,228.590012 
	C373.135620,202.447968 373.080383,176.305756 372.875916,150.164764 
	C372.865082,148.781021 371.549652,146.240707 370.765656,146.210495 
	C363.010590,145.911774 355.239502,146.029755 347.241516,146.029755 
	C347.241516,186.026917 347.241516,225.052460 347.241516,264.644440 
	C351.594177,264.644440 355.548798,264.644440 360.488983,264.644196 
M379.444214,114.743050 
	C381.143677,100.947433 373.179321,91.705391 360.315674,92.545792 
	C350.764343,93.169800 343.376678,100.468742 342.851654,109.800072 
	C342.283478,119.898026 347.476410,127.067177 356.571686,128.741440 
	C367.040192,130.668503 375.604431,125.686150 379.444214,114.743050 
M949.872498,107.917007 
	C947.177185,97.206970 940.308960,91.925034 930.278381,92.848412 
	C920.580261,93.741180 913.102295,102.161728 913.412598,111.840157 
	C913.745361,122.219574 920.852051,128.903809 931.560425,128.909210 
	C943.087402,128.915024 949.947815,121.408951 949.872498,107.917007 
z"/>
<path fill="#F8F8F8" opacity="1.000000" stroke="none" 
	d="
M1044.680908,149.323914 
	C1059.329956,156.263062 1067.712158,167.840057 1069.069824,183.255844 
	C1070.304932,197.279587 1070.542236,211.588425 1069.253174,225.590591 
	C1067.362671,246.125244 1053.465210,260.491364 1033.111938,264.131348 
	C1024.175537,265.729523 1014.889954,266.075653 1005.787659,265.874207 
	C993.507263,265.602478 981.250610,264.254333 968.016357,263.298187 
	C968.016357,208.128525 968.016357,153.462769 968.016357,98.339653 
	C975.794189,98.339653 984.320312,98.339653 993.373047,98.339653 
	C993.373047,114.083908 993.373047,129.669357 993.373047,145.942734 
	C1010.912476,143.935608 1027.979980,141.982681 1044.680908,149.323914 
M993.931274,173.071548 
	C993.821289,194.557236 993.672302,216.042999 993.707458,237.528442 
	C993.709412,238.693146 995.250549,240.864868 996.076721,240.865662 
	C1006.679138,240.875732 1017.360962,241.284653 1027.857544,240.113159 
	C1035.286743,239.283997 1040.424438,233.832901 1042.014648,226.342133 
	C1045.019409,212.188614 1044.956177,197.906525 1042.060547,183.726730 
	C1040.674683,176.940277 1036.099976,172.539474 1029.608398,170.649872 
	C1017.733337,167.193146 1005.929077,168.082550 993.931274,173.071548 
z"/>
<path fill="#F7F7F7" opacity="1.000000" stroke="none" 
	d="
M787.841797,172.196930 
	C788.583130,178.035431 789.722778,183.474075 789.765625,188.921341 
	C789.945007,211.736969 789.754272,234.555283 789.810181,257.372314 
	C789.818726,260.848877 789.192017,262.722839 785.042480,263.123383 
	C763.813049,265.172577 742.629639,267.678558 721.316406,264.018646 
	C708.305298,261.784302 698.125061,256.107635 692.206604,243.469101 
	C685.136658,228.371658 690.317078,207.539886 704.006348,197.960403 
	C711.171204,192.946594 718.946960,189.692154 727.617798,189.428513 
	C739.388611,189.070602 751.178467,189.339401 762.696167,189.339401 
	C764.634399,179.979996 761.260986,172.532410 753.573364,170.219086 
	C747.132080,168.280792 740.211914,166.926224 733.528503,167.022751 
	C721.772400,167.192520 710.035034,168.667755 697.200195,169.682465 
	C697.200195,163.151169 697.111084,156.253265 697.322021,149.364578 
	C697.346191,148.575211 698.954956,147.339386 699.984253,147.148727 
	C721.281921,143.203827 742.628906,141.513214 763.777222,147.776169 
	C775.954895,151.382523 784.091492,159.462631 787.841797,172.196930 
M763.785583,237.105576 
	C763.812195,229.280563 763.960205,221.452209 763.746277,213.633774 
	C763.710449,212.324219 762.004150,209.881424 761.241028,209.947281 
	C749.550659,210.956146 737.732666,211.519196 726.274536,213.825989 
	C718.482239,215.394760 715.102051,221.938889 715.753357,229.225204 
	C716.314758,235.507050 720.476868,240.133301 728.682800,240.837891 
	C739.230957,241.743591 749.898499,241.372726 760.510925,241.245743 
	C761.611877,241.232559 762.687988,239.145325 763.785583,237.105576 
z"/>
<path fill="#F8F8F8" opacity="1.000000" stroke="none" 
	d="
M1180.703125,238.894196 
	C1180.841919,245.630814 1181.081665,251.965561 1180.794067,258.276276 
	C1180.729858,259.684662 1179.006958,261.966888 1177.719604,262.227875 
	C1158.000854,266.225403 1138.122559,268.152954 1118.266235,263.583527 
	C1098.797241,259.103271 1087.668823,245.862366 1085.221069,226.716339 
	C1083.442139,212.800797 1083.391602,198.391907 1084.739258,184.412079 
	C1086.825562,162.771255 1101.519653,148.195312 1122.999634,145.043488 
	C1130.627686,143.924194 1138.665527,143.991791 1146.322998,144.994263 
	C1165.925293,147.560440 1178.781982,158.737335 1182.596191,178.251785 
	C1184.674438,188.885132 1184.367432,199.984711 1185.195435,211.712585 
	C1181.942383,211.712585 1180.020386,211.711929 1178.098389,211.712692 
	C1157.449585,211.720932 1136.799438,211.863190 1116.153198,211.640991 
	C1111.173218,211.587402 1109.899414,213.305847 1110.270630,218.035904 
	C1111.468262,233.293427 1117.028931,239.698425 1132.254028,241.424683 
	C1146.817627,243.075958 1161.126831,240.885681 1175.292603,237.419983 
	C1176.884399,237.030563 1178.831543,238.093948 1180.703125,238.894196 
M1125.507812,188.728928 
	C1136.336670,188.728928 1147.165527,188.728928 1157.972412,188.728928 
	C1157.687866,174.049759 1149.555054,166.793701 1134.790894,166.902130 
	C1121.214844,167.001831 1112.138916,173.510452 1110.292725,184.305313 
	C1109.748169,187.489883 1110.540283,189.069275 1114.028198,188.896744 
	C1117.517090,188.724152 1121.017700,188.790451 1125.507812,188.728928 
z"/>
<path fill="#F8F8F8" opacity="1.000000" stroke="none" 
	d="
M471.907867,232.999954 
	C471.849243,219.675034 471.857727,206.849228 471.682953,194.025894 
	C471.640137,190.885391 471.307831,187.678558 470.574677,184.630646 
	C468.179230,174.671967 461.881805,168.555679 451.620483,167.454773 
	C446.893036,166.947586 441.910919,167.119385 437.249908,168.032639 
	C426.838531,170.072586 420.156860,177.280014 418.952240,187.821625 
	C418.142761,194.905228 418.125519,202.099915 418.085266,209.246765 
	C417.992371,225.735519 418.101593,242.225388 418.128113,258.714813 
	C418.130737,260.355560 418.128479,261.996307 418.128479,263.999634 
	C409.421692,263.999634 401.183655,263.999634 392.558289,263.999634 
	C392.417419,262.737762 392.157043,261.483154 392.155151,260.228149 
	C392.122711,238.740936 392.104645,217.253647 392.134125,195.766449 
	C392.138458,192.606964 392.189270,189.421402 392.578705,186.292740 
	C395.709625,161.138519 411.232178,145.923538 436.552338,143.967941 
	C444.611481,143.345490 452.935455,143.559723 460.903290,144.846329 
	C482.523651,148.337433 495.484558,162.256119 497.919434,184.046585 
	C498.767273,191.634277 498.744476,199.339188 498.790894,206.992569 
	C498.904938,225.802322 498.828217,244.613235 498.828217,263.899292 
	C489.955017,263.899292 481.276215,263.899292 471.907440,263.899292 
	C471.907440,253.718124 471.907440,243.609039 471.907867,232.999954 
z"/>
<path fill="#F8F8F8" opacity="1.000000" stroke="none" 
	d="
M597.164673,210.884140 
	C609.701782,231.612427 599.648193,257.441681 576.529297,263.358948 
	C556.895203,268.384277 537.144470,265.788666 517.565125,262.162506 
	C516.504822,261.966125 515.037598,260.034058 515.002502,258.872345 
	C514.772034,251.257172 514.883789,243.631607 514.883789,235.664413 
	C522.085815,237.375702 529.058533,239.760117 536.206848,240.544418 
	C544.882568,241.496307 553.706421,241.204712 562.466064,241.199326 
	C564.373596,241.198151 566.359131,240.309982 568.171265,239.516312 
	C571.956482,237.858459 574.313721,234.912537 574.612915,230.738266 
	C574.924500,226.389786 572.640259,223.166214 568.784180,221.739975 
	C560.841553,218.802200 552.679443,216.463699 544.688232,213.649582 
	C539.046021,211.662689 533.392944,209.602707 527.993225,207.049667 
	C506.994049,197.121094 508.021393,169.769760 518.217041,157.776627 
	C524.397644,150.506348 532.563782,147.273773 541.480774,145.614746 
	C556.870239,142.751480 572.340942,144.140182 587.784607,145.336212 
	C590.406799,145.539291 593.024719,145.797363 595.509155,146.017990 
	C595.509155,153.759781 595.509155,161.209396 595.509155,169.305878 
	C592.855469,169.132492 590.626099,168.912262 588.392517,168.853256 
	C575.767822,168.519714 563.143066,168.126022 550.515869,168.003647 
	C548.108704,167.980331 545.593872,168.831253 543.299988,169.720474 
	C539.754272,171.095016 537.767395,173.813873 537.557312,177.744370 
	C537.341858,181.775574 538.653809,185.145203 542.373657,186.842865 
	C547.044250,188.974472 551.861694,190.847702 556.744324,192.437698 
	C565.439697,195.269318 574.487671,197.189850 582.888367,200.690826 
	C588.052612,202.843002 592.288696,207.222198 597.164673,210.884140 
z"/>
<path fill="#F7F7F7" opacity="1.000000" stroke="none" 
	d="
M830.276855,244.855591 
	C818.324097,212.005463 806.510864,179.521149 794.306091,145.959930 
	C804.338013,145.959930 813.398010,145.855270 822.447205,146.120438 
	C823.360962,146.147217 824.593628,148.284683 825.031006,149.650009 
	C833.307556,175.487549 841.481384,201.358002 849.702698,227.213318 
	C850.083069,228.409561 850.706970,229.528381 851.785034,231.967560 
	C852.838013,228.912018 853.501770,227.119797 854.076050,225.299332 
	C861.937805,200.377487 869.858826,175.473785 877.558044,150.501740 
	C878.638977,146.995880 880.249451,145.808182 883.862610,145.938538 
	C891.316406,146.207458 898.786682,146.019485 907.115234,146.019485 
	C903.835388,155.405243 900.703857,164.288269 897.625671,173.189743 
	C887.724731,201.821503 877.751709,230.429077 868.058411,259.131073 
	C866.686218,263.194122 865.147034,265.106323 860.537720,264.767914 
	C854.076111,264.293549 847.551392,264.504547 841.060852,264.683350 
	C838.319458,264.758911 836.854370,264.080383 836.006226,261.247711 
	C834.384949,255.833145 832.305664,250.555740 830.276855,244.855591 
z"/>
<path fill="#F9F9F9" opacity="1.000000" stroke="none" 
	d="
M615.921875,97.965431 
	C623.658020,97.920166 631.394165,97.874893 639.501709,98.336655 
	C640.027161,99.585281 640.181213,100.326866 640.335266,101.068451 
	C640.335266,115.689125 640.335266,130.309784 640.335266,145.568573 
	C653.477722,145.568573 666.193665,145.568573 679.190063,145.568573 
	C679.190063,153.445984 679.190063,160.681564 679.190063,168.444809 
	C677.166382,168.578949 675.415588,168.791901 673.664368,168.794922 
	C664.176636,168.811325 654.687622,168.852081 645.201599,168.714035 
	C642.155579,168.669693 640.697144,169.362701 640.753235,172.855545 
	C641.023071,189.664719 640.948303,206.479416 641.218689,223.288574 
	C641.393127,234.131744 646.555420,239.544815 657.430115,240.113190 
	C664.858154,240.501404 672.322937,240.187500 680.698608,240.187500 
	C680.698608,247.119324 680.792908,254.735138 680.576538,262.342102 
	C680.550171,263.268097 678.807495,264.971375 677.937744,264.922974 
	C665.353638,264.223114 652.562622,264.442383 640.266235,262.102478 
	C625.874023,259.363861 619.236084,248.052185 616.241455,234.466934 
	C615.848816,232.685349 615.675659,230.855377 615.517578,228.377945 
	C615.450439,227.177261 615.266541,226.646454 615.082642,226.115631 
	C614.957458,184.035110 614.832275,141.954605 615.015015,99.364349 
	C615.522644,98.558228 615.722229,98.261833 615.921875,97.965431 
z"/>
<path fill="#F7F7F7" opacity="1.000000" stroke="none" 
	d="
M928.059753,264.534729 
	C924.767395,264.535675 921.961304,264.535675 918.718689,264.535675 
	C918.718689,225.197495 918.718689,186.145554 918.718689,146.546967 
	C926.859131,146.546967 935.244873,146.546967 944.225037,146.546967 
	C944.225037,185.585983 944.225037,224.642380 944.225037,264.533783 
	C939.103149,264.533783 933.824585,264.533783 928.059753,264.534729 
z"/>
<path fill="#F7F7F7" opacity="1.000000" stroke="none" 
	d="
M359.996216,264.644318 
	C355.548798,264.644440 351.594177,264.644440 347.241516,264.644440 
	C347.241516,225.052460 347.241516,186.026917 347.241516,146.029755 
	C355.239502,146.029755 363.010590,145.911774 370.765656,146.210495 
	C371.549652,146.240707 372.865082,148.781021 372.875916,150.164764 
	C373.080383,176.305756 373.135620,202.447968 373.198669,228.590012 
	C373.226746,240.235764 373.203461,251.881668 373.203461,264.644196 
	C368.963318,264.644196 364.726166,264.644196 359.996216,264.644318 
z"/>
<path fill="#DB25A6" opacity="1.000000" stroke="none" 
	d="
M159.043549,293.109924 
	C158.160721,292.910950 157.277893,292.711975 156.190887,291.870178 
	C152.123596,286.307007 150.178986,281.602417 157.443558,277.883850 
	C157.693710,277.755798 157.809143,277.339630 157.958542,277.043182 
	C161.628494,269.761780 165.589645,262.960815 173.687256,259.354095 
	C176.900543,257.922913 177.104935,254.620087 174.272507,251.485184 
	C172.103683,249.084763 170.673645,246.016846 169.165009,243.194305 
	C169.584610,243.128693 169.754196,243.114594 170.224930,243.130936 
	C170.920288,243.239746 171.314514,243.318115 171.844620,243.673676 
	C172.992264,244.934875 174.004013,245.918854 175.036972,247.257111 
	C178.041580,250.420364 181.024979,253.229355 184.009247,256.400787 
	C186.831680,262.953491 192.236221,266.293671 198.002487,269.062317 
	C200.725464,270.369751 202.487289,271.232422 200.809601,274.857666 
	C200.004425,276.597473 200.275833,279.695923 201.367157,281.276154 
	C203.730377,284.698120 202.999817,286.975983 200.180618,289.363556 
	C199.370850,290.049347 198.846375,291.071991 198.103226,292.056580 
	C199.867004,292.890076 201.267563,293.551910 202.749908,294.252411 
	C202.066452,295.713623 201.530014,296.860474 200.527069,298.012878 
	C195.032257,298.009125 190.003952,297.999786 184.917175,297.635681 
	C183.232101,297.217682 181.605499,297.154419 179.554504,297.082031 
	C176.922791,296.656036 174.716675,296.232849 172.507965,295.823700 
	C168.461548,295.074158 164.413574,294.332977 160.366241,293.588318 
	C160.366241,293.588318 160.123642,293.566193 160.006973,293.258972 
	C159.608047,293.004486 159.325790,293.057220 159.043549,293.109924 
z"/>
<path fill="#F39544" opacity="1.000000" stroke="none" 
	d="
M280.580536,121.038345 
	C282.378998,123.464897 284.177460,125.891449 286.013977,129.034927 
	C285.302887,133.177994 284.816956,136.687714 283.760101,140.016144 
	C278.493134,156.603531 270.946564,171.885452 257.683319,183.695801 
	C256.080688,185.122879 254.022507,186.038330 251.889618,186.886810 
	C250.289780,181.155579 249.176346,175.669235 247.597626,170.320251 
	C246.358093,166.120483 244.543457,162.090454 243.337738,158.048920 
	C247.210892,161.156311 249.794205,159.956848 252.288559,156.544281 
	C257.596252,149.282700 263.106140,142.169067 268.516327,134.982147 
	C270.345123,132.552750 273.378998,130.182190 273.577850,127.608246 
	C273.784576,124.932983 271.228149,122.044235 269.749573,118.978317 
	C271.301544,118.660622 273.175995,118.276917 275.379211,117.966339 
	C277.332153,119.039085 278.956360,120.038719 280.580536,121.038345 
z"/>
<path fill="#F4455B" opacity="1.000000" stroke="none" 
	d="
M252.175446,187.190918 
	C254.022507,186.038330 256.080688,185.122879 257.683319,183.695801 
	C270.946564,171.885452 278.493134,156.603531 283.760101,140.016144 
	C284.816956,136.687714 285.302887,133.177994 286.101379,129.377533 
	C294.557831,140.416962 300.101257,153.032974 302.081177,167.881989 
	C302.269470,169.758163 302.527924,170.867920 302.458557,171.904419 
	C299.416962,167.386002 296.691071,169.271683 293.779510,171.688644 
	C289.030548,175.630920 286.157928,181.097977 280.466431,184.613586 
	C272.090332,189.787430 263.549652,192.499619 253.748413,192.813385 
	C253.062881,191.381348 252.629562,190.162186 252.143219,188.651794 
	C252.118607,187.970673 252.147018,187.580795 252.175446,187.190918 
z"/>
<path fill="#F7F7F7" opacity="1.000000" stroke="none" 
	d="
M379.354156,115.141449 
	C375.604431,125.686150 367.040192,130.668503 356.571686,128.741440 
	C347.476410,127.067177 342.283478,119.898026 342.851654,109.800072 
	C343.376678,100.468742 350.764343,93.169800 360.315674,92.545792 
	C373.179321,91.705391 381.143677,100.947433 379.354156,115.141449 
z"/>
<path fill="#F7F7F7" opacity="1.000000" stroke="none" 
	d="
M949.917908,108.345726 
	C949.947815,121.408951 943.087402,128.915024 931.560425,128.909210 
	C920.852051,128.903809 913.745361,122.219574 913.412598,111.840157 
	C913.102295,102.161728 920.580261,93.741180 930.278381,92.848412 
	C940.308960,91.925034 947.177185,97.206970 949.917908,108.345726 
z"/>
<path fill="#BB3BBE" opacity="1.000000" stroke="none" 
	d="
M168.915009,243.245819 
	C170.673645,246.016846 172.103683,249.084763 174.272507,251.485184 
	C177.104935,254.620087 176.900543,257.922913 173.687256,259.354095 
	C165.589645,262.960815 161.628494,269.761780 157.958542,277.043182 
	C157.809143,277.339630 157.693710,277.755798 157.443558,277.883850 
	C150.178986,281.602417 152.123596,286.307007 155.985855,291.591309 
	C153.492401,291.074738 150.999832,290.194244 148.129730,289.181091 
	C147.752182,289.048431 147.813202,289.021545 147.813202,289.021545 
	C147.663971,288.907990 147.514740,288.794464 147.122131,288.175262 
	C143.887192,285.699860 140.895645,283.730072 137.926270,281.415833 
	C136.684433,276.897369 137.952850,274.305115 142.214828,272.635712 
	C144.292313,271.821991 146.023132,269.704193 147.496902,267.847992 
	C151.668411,262.594116 155.236145,256.808685 159.776657,251.914459 
	C164.423065,246.906097 165.041458,246.661423 164.360382,240.907623 
	C166.107925,241.726715 167.511475,242.486267 168.915009,243.245819 
z"/>
<path fill="#DAC268" opacity="1.000000" stroke="none" 
	d="
M280.623962,120.789993 
	C278.956360,120.038719 277.332153,119.039085 275.330200,117.632133 
	C268.317535,109.218079 260.243744,103.046394 250.921097,98.500381 
	C250.071426,98.086052 249.000076,98.126328 247.964813,97.610352 
	C243.938049,95.503525 239.978180,93.741852 235.846741,91.666794 
	C228.458725,89.220238 221.242233,87.087059 213.854462,84.716446 
	C213.134186,84.317505 212.585220,84.155998 211.922195,83.777176 
	C211.597656,83.292137 211.327042,83.117775 210.528061,83.022797 
	C202.719101,83.007233 195.378342,83.005646 187.595337,82.989563 
	C185.028030,83.166718 182.877594,83.211838 180.782059,83.574295 
	C168.945908,85.621513 158.007111,90.358612 146.640457,94.960541 
	C144.654114,95.612335 143.004333,96.168343 141.469711,96.950317 
	C138.724579,98.349106 136.048828,99.884064 133.280273,101.294289 
	C133.216461,101.226494 133.088684,101.091057 133.088684,101.091064 
	C139.618011,97.058311 145.777969,92.177216 152.742813,89.144768 
	C178.189178,78.065590 204.421219,77.049355 230.721542,85.730133 
	C250.262726,92.179970 267.039001,103.168060 280.232666,119.218689 
	C280.507416,119.552948 280.528168,120.095993 280.623962,120.789993 
z"/>
<path fill="#C91D6F" opacity="1.000000" stroke="none" 
	d="
M184.975662,297.990479 
	C190.003952,297.999786 195.032257,298.009125 200.931259,298.020325 
	C217.611908,296.562256 233.042389,294.001373 245.795609,282.634064 
	C242.186050,281.146484 238.612427,280.445404 235.005981,280.027466 
	C232.998260,279.794830 230.805237,280.214081 231.457565,277.099792 
	C237.269730,277.078796 242.663635,277.061951 248.460510,277.039581 
	C249.993637,276.880890 251.825424,277.101532 252.138763,276.513306 
	C254.012848,272.995056 256.133453,273.972260 258.605194,275.650787 
	C259.208435,276.060455 260.207123,275.887817 261.317627,276.118347 
	C262.188049,276.549347 262.764832,276.844910 263.341644,277.140503 
	C255.704773,282.019226 248.529449,287.932648 240.344849,291.583466 
	C215.376495,302.721039 189.599579,304.214783 163.476120,295.432556 
	C162.541855,295.118469 161.680496,294.587555 160.575714,293.872986 
	C164.413574,294.332977 168.461548,295.074158 172.507965,295.823700 
	C174.716675,296.232849 176.922791,296.656036 179.819580,297.339478 
	C181.997925,297.734161 183.486801,297.862305 184.975662,297.990479 
z"/>
<path fill="#3096CC" opacity="1.000000" stroke="none" 
	d="
M89.025291,220.054581 
	C88.834785,219.221771 88.644279,218.388947 88.645576,216.853180 
	C88.621506,214.710129 88.405624,213.270035 88.519531,211.977539 
	C89.178230,212.479538 89.656044,212.777893 89.813736,213.196762 
	C92.246437,219.658493 94.415108,226.231903 97.147430,232.562546 
	C98.245079,235.105713 100.559250,237.123840 102.843559,240.052521 
	C105.514168,232.752274 107.335945,226.760559 109.867653,221.085526 
	C113.807266,212.254517 117.762337,203.367523 122.607346,195.024902 
	C125.969292,189.235962 130.837692,184.321899 135.286987,178.841431 
	C136.341507,178.087021 137.142044,177.508133 137.959457,177.248962 
	C138.227631,178.327148 138.478928,179.085602 138.803604,180.269730 
	C138.597183,184.559662 138.317368,188.423904 138.002045,192.552094 
	C137.909241,193.174637 137.851929,193.533234 137.460297,193.745148 
	C131.705978,192.436981 128.186172,196.473724 124.095146,198.659714 
	C122.264717,199.637772 121.002350,202.029617 119.943512,204.024719 
	C118.006165,207.675125 116.370644,211.489136 114.682556,215.267685 
	C111.008797,223.490829 106.672371,231.459351 106.877090,240.945663 
	C106.946671,244.169983 105.752106,247.421570 104.893188,250.705261 
	C104.651184,250.749802 104.176933,250.881317 104.176933,250.881317 
	C103.890724,250.655090 103.604523,250.428848 103.151932,249.798462 
	C102.876671,249.192902 102.710136,249.069016 102.485916,249.022659 
	C99.726418,244.026123 96.966919,239.029602 94.063812,233.652893 
	C93.920197,233.272705 93.944717,233.336884 93.944717,233.336884 
	C93.790756,232.966141 93.636795,232.595398 93.290649,231.348724 
	C92.349007,228.642639 91.599548,226.812485 90.850090,224.982330 
	C90.702660,224.701660 90.555237,224.421005 90.260345,223.425995 
	C89.750351,221.825928 89.387817,220.940262 89.025291,220.054581 
z"/>
<path fill="#DAC268" opacity="1.000000" stroke="none" 
	d="
M94.720703,146.904785 
	C100.488701,137.736099 105.655792,128.106262 112.222061,119.550224 
	C117.138046,113.144547 123.834793,108.098915 129.803772,102.517349 
	C130.457596,101.905952 131.541656,101.754646 132.757416,101.240494 
	C133.088684,101.091057 133.216461,101.226494 133.107056,101.576118 
	C121.443817,111.952835 109.992065,122.067352 103.505089,136.664032 
	C106.947678,135.341644 109.932251,133.342148 113.089508,131.668396 
	C122.194740,126.841469 131.419479,122.282661 141.777710,121.434364 
	C139.055756,122.669899 136.435806,123.606110 133.492661,124.569725 
	C132.751892,124.706398 132.334320,124.815674 131.567169,124.892776 
	C129.430954,125.838409 127.644318,126.816223 125.837372,127.788292 
	C125.817055,127.782555 125.779366,127.763557 125.444099,127.760788 
	C124.527771,128.377258 123.946709,128.996506 123.030441,129.605865 
	C121.043190,130.247940 119.391129,130.899918 117.398506,131.610458 
	C115.912407,132.612335 114.766884,133.555649 113.611275,134.537460 
	C113.601189,134.575943 113.524971,134.553116 113.195259,134.510361 
	C111.760399,135.227966 110.655243,135.988312 109.313988,136.826706 
	C108.688728,137.210297 108.299576,137.515854 107.586243,137.897247 
	C106.014893,139.224777 104.767723,140.476456 103.354126,141.693970 
	C103.187714,141.659821 102.892036,141.827194 102.562027,141.914062 
	C100.789421,143.313858 99.439987,144.756287 97.866928,145.887817 
	C97.015106,146.500565 95.781876,146.583084 94.720703,146.904785 
z"/>
<path fill="#2FB294" opacity="1.000000" stroke="none" 
	d="
M94.377831,147.081970 
	C95.781876,146.583084 97.015106,146.500565 97.866928,145.887817 
	C99.439987,144.756287 100.789421,143.313858 102.583725,142.257645 
	C102.292160,143.680405 101.648888,144.846451 100.955437,146.353668 
	C99.786171,148.097961 98.369774,149.357376 97.608177,150.933258 
	C95.874352,154.520828 94.461906,158.263702 92.657440,162.200424 
	C91.597977,165.298050 90.799934,168.138733 89.831329,171.337219 
	C88.829979,181.479080 87.999184,191.263107 87.137695,201.406265 
	C87.467926,205.120239 87.828835,208.475082 88.189743,211.829926 
	C88.405624,213.270035 88.621506,214.710129 88.717606,216.418854 
	C87.208138,211.279633 84.930542,205.926819 84.591377,200.453888 
	C83.470657,182.369293 85.590111,164.677063 93.438087,148.034073 
	C93.573921,147.746002 93.833267,147.516159 94.377831,147.081970 
z"/>
<path fill="#BD3A5D" opacity="1.000000" stroke="none" 
	d="
M263.671753,277.104797 
	C262.764832,276.844910 262.188049,276.549347 261.377533,275.784088 
	C262.787842,273.906921 264.431885,272.499390 266.061859,271.079285 
	C266.047821,271.066711 266.059021,271.059692 266.378479,271.033203 
	C267.482941,270.347198 268.268005,269.687653 269.351624,268.877747 
	C271.777618,266.660126 274.115112,264.766846 275.995422,262.495117 
	C283.446503,253.493011 290.517792,244.499176 295.037598,233.257370 
	C298.254486,225.256210 299.799805,217.107971 302.162598,208.641296 
	C302.549286,206.191849 302.773621,204.098679 303.282562,201.997955 
	C303.944550,202.012909 304.321869,202.035400 304.699219,202.057892 
	C302.961792,211.395660 302.286926,221.096100 299.251129,229.990707 
	C293.997681,245.382996 284.518921,258.422668 272.568146,270.010406 
	C272.296539,270.237396 272.258728,270.218597 272.258728,270.218597 
	C269.506439,272.502075 266.754150,274.785553 263.671753,277.104797 
z"/>
<path fill="#695699" opacity="1.000000" stroke="none" 
	d="
M137.904099,281.760284 
	C140.895645,283.730072 143.887192,285.699860 146.949524,287.953186 
	C141.133820,284.743011 134.618683,281.980865 129.505402,277.587250 
	C121.451981,270.667328 114.341393,262.650146 106.825989,254.647858 
	C106.820312,254.198227 107.097198,253.901352 107.399406,253.937958 
	C108.107529,254.010361 108.513451,254.046188 108.988266,254.411316 
	C112.974518,258.194305 116.891869,261.647980 120.891449,265.448151 
	C126.617142,271.116516 132.260620,276.438416 137.904099,281.760284 
z"/>
<path fill="#BD3A5D" opacity="1.000000" stroke="none" 
	d="
M302.786377,171.977676 
	C302.527924,170.867920 302.269470,169.758163 302.039734,168.305161 
	C302.741150,169.153290 303.928436,170.312759 304.004608,171.541122 
	C304.577789,180.783478 304.932190,190.039383 304.857605,199.407532 
	C304.195679,198.672089 304.031158,197.820190 303.897095,196.645142 
	C303.909058,195.889938 303.890564,195.457855 303.906555,194.559692 
	C303.556152,186.721649 303.171265,179.349655 302.786377,171.977676 
z"/>
<path fill="#2FB294" opacity="1.000000" stroke="none" 
	d="
M90.665649,225.291656 
	C91.599548,226.812485 92.349007,228.642639 93.153435,230.762405 
	C92.299339,229.235001 91.390274,227.417984 90.665649,225.291656 
z"/>
<path fill="#F13759" opacity="1.000000" stroke="none" 
	d="
M303.866669,196.968277 
	C304.031158,197.820190 304.195679,198.672089 304.614136,199.727798 
	C304.881805,200.410080 304.895508,200.888565 304.804199,201.712463 
	C304.321869,202.035400 303.944550,202.012909 303.016174,201.758453 
	C302.932343,200.007095 303.399506,198.487686 303.866669,196.968277 
z"/>
<path fill="#695699" opacity="1.000000" stroke="none" 
	d="
M640.625916,101.003990 
	C640.181213,100.326866 640.027161,99.585281 639.957153,98.467270 
	C640.481201,98.006775 640.921204,97.922699 641.361145,97.838623 
	C641.212952,98.872261 641.064758,99.905891 640.625916,101.003990 
z"/>
<path fill="#695699" opacity="1.000000" stroke="none" 
	d="
M104.173843,251.213196 
	C104.176933,250.881317 104.651184,250.749802 105.112213,250.952713 
	C106.081230,252.070862 106.589211,252.986115 107.097198,253.901352 
	C107.097198,253.901352 106.820312,254.198227 106.674301,254.342834 
	C105.742447,253.506653 104.956604,252.525864 104.173843,251.213196 
z"/>
<path fill="#2FB294" opacity="1.000000" stroke="none" 
	d="
M88.763664,220.263733 
	C89.387817,220.940262 89.750351,221.825928 90.158958,222.961395 
	C89.637367,222.298416 89.069702,221.385666 88.763664,220.263733 
z"/>
<path fill="#695699" opacity="1.000000" stroke="none" 
	d="
M615.851990,97.730408 
	C615.722229,98.261833 615.522644,98.558228 615.042603,98.891907 
	C615.102173,98.451256 615.442139,97.973320 615.851990,97.730408 
z"/>
<path fill="#695699" opacity="1.000000" stroke="none" 
	d="
M614.879822,226.201706 
	C615.266541,226.646454 615.450439,227.177261 615.450317,227.946548 
	C615.069824,227.552612 614.873413,226.920197 614.879822,226.201706 
z"/>
<path fill="#695699" opacity="1.000000" stroke="none" 
	d="
M102.437866,249.220291 
	C102.710136,249.069016 102.876671,249.192902 103.035034,249.545807 
	C103.084534,249.697296 102.676796,249.707306 102.676796,249.707306 
	C102.676796,249.707306 102.389809,249.417923 102.437866,249.220291 
z"/>
<path fill="#2FB294" opacity="1.000000" stroke="none" 
	d="
M93.851379,233.289368 
	C93.944717,233.336884 93.920197,233.272705 93.927658,233.246643 
	C93.935112,233.220581 93.758041,233.241867 93.851379,233.289368 
z"/>
<path fill="#C91D6F" opacity="1.000000" stroke="none" 
	d="
M272.259338,270.253906 
	C272.258728,270.218597 272.296539,270.237396 272.268616,270.238831 
	C272.240723,270.240295 272.259918,270.289246 272.259338,270.253906 
z"/>
<path fill="#695699" opacity="1.000000" stroke="none" 
	d="
M147.733185,289.032257 
	C147.813202,289.021545 147.752182,289.048431 147.745483,289.027344 
	C147.738785,289.006287 147.653183,289.042969 147.733185,289.032257 
z"/>
<path fill="#BB3BBE" opacity="1.000000" stroke="none" 
	d="
M159.246155,293.271606 
	C159.325790,293.057220 159.608047,293.004486 159.927429,293.166748 
	C159.792633,293.398895 159.620697,293.416107 159.246155,293.271606 
z"/>
<path fill="#030303" opacity="1.000000" stroke="none" 
	d="
M994.136353,172.675018 
	C1005.929077,168.082550 1017.733337,167.193146 1029.608398,170.649872 
	C1036.099976,172.539474 1040.674683,176.940277 1042.060547,183.726730 
	C1044.956177,197.906525 1045.019409,212.188614 1042.014648,226.342133 
	C1040.424438,233.832901 1035.286743,239.283997 1027.857544,240.113159 
	C1017.360962,241.284653 1006.679138,240.875732 996.076721,240.865662 
	C995.250549,240.864868 993.709412,238.693146 993.707458,237.528442 
	C993.672302,216.042999 993.821289,194.557236 994.136353,172.675018 
z"/>
<path fill="#030303" opacity="1.000000" stroke="none" 
	d="
M763.780640,237.563004 
	C762.687988,239.145325 761.611877,241.232559 760.510925,241.245743 
	C749.898499,241.372726 739.230957,241.743591 728.682800,240.837891 
	C720.476868,240.133301 716.314758,235.507050 715.753357,229.225204 
	C715.102051,221.938889 718.482239,215.394760 726.274536,213.825989 
	C737.732666,211.519196 749.550659,210.956146 761.241028,209.947281 
	C762.004150,209.881424 763.710449,212.324219 763.746277,213.633774 
	C763.960205,221.452209 763.812195,229.280563 763.780640,237.563004 
z"/>
<path fill="#030303" opacity="1.000000" stroke="none" 
	d="
M1125.010498,188.740479 
	C1121.017700,188.790451 1117.517090,188.724152 1114.028198,188.896744 
	C1110.540283,189.069275 1109.748169,187.489883 1110.292725,184.305313 
	C1112.138916,173.510452 1121.214844,167.001831 1134.790894,166.902130 
	C1149.555054,166.793701 1157.687866,174.049759 1157.972412,188.728928 
	C1147.165527,188.728928 1136.336670,188.728928 1125.010498,188.740479 
z"/>
<path fill="#F8336A" opacity="1.000000" stroke="none" 
	d="
M248.057541,277.045135 
	C242.663635,277.061951 237.269730,277.078796 231.032486,277.071533 
	C228.775909,277.047424 227.362671,277.047333 225.747345,276.780396 
	C224.051147,276.039734 222.557053,275.565918 220.673355,275.068542 
	C219.503326,275.034271 218.722916,275.023560 217.790100,274.775635 
	C217.113907,274.374573 216.590073,274.210724 215.687531,273.989105 
	C209.324707,270.929474 203.217972,268.144714 197.395340,264.856842 
	C192.753296,262.235626 188.457733,259.000824 184.008362,256.038361 
	C181.024979,253.229355 178.041580,250.420364 175.453094,247.270752 
	C189.755524,250.236954 203.534225,250.787354 217.017441,245.349274 
	C217.452820,246.487045 217.887833,247.281982 218.322861,248.076920 
	C218.628021,247.952789 218.933167,247.828644 219.238327,247.704498 
	C219.154694,246.793274 219.071060,245.882034 219.281830,244.838470 
	C220.388397,244.457230 221.200546,244.208298 221.968964,244.330017 
	C220.075195,248.221451 221.838516,249.874741 225.048920,250.865997 
	C232.091156,253.040375 231.721451,252.911835 228.883484,259.973419 
	C227.465973,263.500549 227.535095,267.666016 227.240372,271.566101 
	C227.186600,272.277740 228.535370,273.649933 229.385132,273.785278 
	C234.900528,274.663818 240.457001,275.284576 246.304749,276.016541 
	C247.092178,276.377258 247.574860,276.711182 248.057541,277.045135 
z"/>
<path fill="#E01D93" opacity="1.000000" stroke="none" 
	d="
M217.942490,275.012878 
	C218.722916,275.023560 219.503326,275.034271 220.715149,275.389221 
	C222.747513,276.171417 224.348465,276.609314 225.949432,277.047241 
	C227.362671,277.047333 228.775909,277.047424 230.614227,277.075714 
	C230.805237,280.214081 232.998260,279.794830 235.005981,280.027466 
	C238.612427,280.445404 242.186050,281.146484 245.795609,282.634064 
	C233.042389,294.001373 217.611908,296.562256 201.397781,298.014740 
	C201.530014,296.860474 202.066452,295.713623 202.749908,294.252411 
	C201.267563,293.551910 199.867004,292.890076 198.103226,292.056580 
	C198.846375,291.071991 199.370850,290.049347 200.180618,289.363556 
	C202.999817,286.975983 203.730377,284.698120 201.367157,281.276154 
	C200.275833,279.695923 200.004425,276.597473 200.809601,274.857666 
	C202.487289,271.232422 200.725464,270.369751 198.002487,269.062317 
	C192.236221,266.293671 186.831680,262.953491 184.009247,256.400787 
	C188.457733,259.000824 192.753296,262.235626 197.395340,264.856842 
	C203.217972,268.144714 209.324707,270.929474 215.703644,274.268677 
	C216.713150,274.741638 217.327820,274.877258 217.942490,275.012878 
z"/>
<path fill="#BD3A5D" opacity="1.000000" stroke="none" 
	d="
M217.017090,245.006424 
	C203.534225,250.787354 189.755524,250.236954 175.431885,246.916489 
	C174.004013,245.918854 172.992264,244.934875 171.909363,243.575989 
	C171.838196,243.201096 171.986679,243.024994 172.371307,243.074677 
	C188.395828,248.598663 204.093063,248.828705 218.962082,241.335205 
	C240.231995,230.615845 251.685257,213.109909 252.196259,188.943024 
	C252.629562,190.162186 253.062881,191.381348 253.739044,193.238373 
	C253.659470,196.919891 253.337021,199.963516 252.998428,203.410889 
	C250.121857,210.556488 248.541656,218.344650 244.092682,223.788239 
	C237.850723,231.425690 229.475464,237.319656 222.012695,243.959366 
	C221.200546,244.208298 220.388397,244.457230 218.953400,244.836761 
	C217.892731,244.980392 217.454910,244.993408 217.017090,245.006424 
z"/>
<path fill="#695699" opacity="1.000000" stroke="none" 
	d="
M169.165009,243.194305 
	C167.511475,242.486267 166.107925,241.726715 164.191071,240.605652 
	C159.115295,236.483582 154.552826,232.723053 149.715805,228.754517 
	C146.954147,224.357468 144.467056,220.168427 141.985626,215.536728 
	C142.139084,214.220200 142.286865,213.346329 142.716812,212.663971 
	C149.497330,225.010086 158.430130,234.952438 169.955261,242.672913 
	C169.945572,242.815491 169.923782,243.100479 169.923782,243.100479 
	C169.754196,243.114594 169.584610,243.128693 169.165009,243.194305 
z"/>
<path fill="#E01D93" opacity="1.000000" stroke="none" 
	d="
M184.917175,297.635712 
	C183.486801,297.862305 181.997925,297.734161 180.243988,297.348572 
	C181.605499,297.154419 183.232101,297.217682 184.917175,297.635712 
z"/>
<path fill="#BD3A5D" opacity="1.000000" stroke="none" 
	d="
M170.224930,243.130936 
	C169.923782,243.100479 169.945572,242.815491 170.229126,242.622452 
	C171.003998,242.627945 171.495346,242.826462 171.986679,243.024994 
	C171.986679,243.024994 171.838196,243.201096 171.773468,243.298782 
	C171.314514,243.318115 170.920288,243.239746 170.224930,243.130936 
z"/>
<path fill="#030303" opacity="1.000000" stroke="none" 
	d="
M172.371307,243.074677 
	C171.495346,242.826462 171.003998,242.627945 170.238800,242.479874 
	C158.430130,234.952438 149.497330,225.010086 142.654129,212.316605 
	C141.961594,210.888062 141.613922,209.998413 141.392670,208.812653 
	C140.989929,207.410629 140.460800,206.304703 139.898468,204.768829 
	C139.620377,203.516815 139.375504,202.694733 139.300598,201.611969 
	C138.991394,200.612671 138.512222,199.874084 138.080231,198.756577 
	C138.103378,196.901993 138.079346,195.426331 138.209335,193.758972 
	C138.393356,193.409698 138.485641,193.230820 138.440552,193.098892 
	C138.343796,192.815796 138.176163,192.556946 138.037552,192.288162 
	C138.317368,188.423904 138.597183,184.559662 139.065430,180.043945 
	C140.051819,177.206787 140.804993,175.003525 141.654755,172.838165 
	C149.312531,153.325226 162.697205,140.037125 183.450790,135.177002 
	C195.015701,132.468689 206.566528,133.711044 218.294312,136.828812 
	C226.455566,140.893021 232.819885,146.500534 238.067474,153.477295 
	C239.095154,154.843658 240.644913,155.817337 242.165909,157.099350 
	C242.675735,157.402893 242.877853,157.655716 242.984283,157.985031 
	C244.543457,162.090454 246.358093,166.120483 247.597626,170.320251 
	C249.176346,175.669235 250.289780,181.155579 251.889618,186.886810 
	C252.147018,187.580795 252.118607,187.970673 252.143219,188.651794 
	C251.685257,213.109909 240.231995,230.615845 218.962082,241.335205 
	C204.093063,248.828705 188.395828,248.598663 172.371307,243.074677 
M162.423676,202.908463 
	C168.368286,218.737015 183.173645,226.293549 197.803467,225.132294 
	C211.157730,224.072296 223.595322,214.576019 227.661667,202.033279 
	C231.896332,188.971298 227.768997,172.039108 218.466812,164.311920 
	C206.279556,154.188126 188.916412,153.013519 176.190979,161.451996 
	C162.640991,170.437271 157.243591,186.169342 162.423676,202.908463 
z"/>
<path fill="#FAB23F" opacity="1.000000" stroke="none" 
	d="
M243.337738,158.048920 
	C242.877853,157.655716 242.675735,157.402893 242.143127,156.737427 
	C239.914886,152.973557 238.142242,149.534271 235.861542,146.473602 
	C233.861481,143.789566 231.291397,141.530304 228.984039,138.681458 
	C231.329285,132.194244 233.622818,126.092880 236.016495,120.031059 
	C237.085800,117.323097 238.157059,114.582603 239.578278,112.054054 
	C242.262039,107.279198 245.199585,102.646988 248.031677,97.955498 
	C249.000076,98.126328 250.071426,98.086052 250.921097,98.500381 
	C260.243744,103.046394 268.317535,109.218079 275.001434,117.559006 
	C273.175995,118.276917 271.301544,118.660622 269.749573,118.978317 
	C271.228149,122.044235 273.784576,124.932983 273.577850,127.608246 
	C273.378998,130.182190 270.345123,132.552750 268.516327,134.982147 
	C263.106140,142.169067 257.596252,149.282700 252.288559,156.544281 
	C249.794205,159.956848 247.210892,161.156311 243.337738,158.048920 
z"/>
<path fill="#F13759" opacity="1.000000" stroke="none" 
	d="
M253.014572,203.007156 
	C253.337021,199.963516 253.659470,196.919891 253.991272,193.451248 
	C263.549652,192.499619 272.090332,189.787430 280.466431,184.613586 
	C286.157928,181.097977 289.030548,175.630920 293.779510,171.688644 
	C296.691071,169.271683 299.416962,167.386002 302.458557,171.904419 
	C303.171265,179.349655 303.556152,186.721649 303.549255,194.462708 
	C302.431946,193.281891 301.706451,191.731995 300.801117,189.797943 
	C298.697479,190.125153 296.325928,189.928619 294.561554,190.870056 
	C288.208466,194.259918 282.005768,197.944336 275.854828,201.695526 
	C272.133698,203.964905 268.612885,206.562698 264.786560,208.753860 
	C263.002045,208.890030 261.433075,209.285278 259.472717,209.779114 
	C259.043121,208.676895 258.233276,207.526443 258.197845,206.352631 
	C258.013458,200.245560 258.082123,200.243484 253.014572,203.007156 
z"/>
<path fill="#9F4ECC" opacity="1.000000" stroke="none" 
	d="
M149.990356,228.962524 
	C154.552826,232.723053 159.115295,236.483582 163.847076,240.546082 
	C165.041458,246.661423 164.423065,246.906097 159.776657,251.914459 
	C155.236145,256.808685 151.668411,262.594116 147.496902,267.847992 
	C146.023132,269.704193 144.292313,271.821991 142.214828,272.635712 
	C137.952850,274.305115 136.684433,276.897369 137.926270,281.415833 
	C132.260620,276.438416 126.617142,271.116516 121.189819,265.249786 
	C127.585869,256.826599 133.729019,248.919052 139.960724,241.081924 
	C143.223709,236.978333 146.642136,232.998337 149.990356,228.962524 
z"/>
<path fill="#FCE35C" opacity="1.000000" stroke="none" 
	d="
M147.028915,94.966583 
	C158.007111,90.358612 168.945908,85.621513 180.782059,83.574295 
	C182.877594,83.211838 185.028030,83.166718 187.583099,83.404053 
	C187.594604,85.733788 187.157654,87.630692 186.761002,89.535980 
	C185.515244,95.519852 182.665100,101.588234 187.885666,107.046532 
	C180.157135,114.041931 180.157135,114.041931 179.759277,116.160057 
	C179.300125,116.845154 179.080139,117.368729 178.574860,117.918091 
	C177.906860,117.928406 177.524109,117.912933 177.006256,117.538498 
	C174.207718,117.120445 171.544312,117.061356 168.442856,117.005379 
	C165.376236,117.009850 162.747681,117.011208 159.857071,116.751541 
	C158.017090,116.969475 156.439163,117.448433 154.449249,117.952423 
	C152.399857,117.993164 150.762421,118.008865 148.891602,117.746925 
	C145.000671,114.272087 140.851471,113.729561 137.617111,117.359810 
	C131.859787,123.821808 125.332359,122.058754 118.505829,120.345413 
	C121.104759,115.812805 121.502701,115.822273 127.492279,120.427559 
	C129.768356,118.148155 129.592331,118.284935 127.450943,115.529037 
	C126.635551,114.479660 126.738312,112.644066 126.708237,111.160988 
	C126.704941,110.998535 128.622238,110.569702 129.599258,110.684700 
	C130.424377,110.781807 131.177734,111.488876 132.581680,112.270508 
	C132.424347,106.198753 135.499359,103.215820 140.232697,100.970535 
	C142.856949,99.725708 144.786331,97.016006 147.028915,94.966583 
z"/>
<path fill="#FCDB51" opacity="1.000000" stroke="none" 
	d="
M179.998413,115.998543 
	C180.157135,114.041931 180.157135,114.041931 187.885666,107.046532 
	C182.665100,101.588234 185.515244,95.519852 186.761002,89.535980 
	C187.157654,87.630692 187.594604,85.733788 188.025345,83.418549 
	C195.378342,83.005646 202.719101,83.007233 210.645432,83.236191 
	C211.441711,83.728035 211.710129,83.905006 212.036255,83.994492 
	C212.585220,84.155998 213.134186,84.317505 213.808929,85.067078 
	C213.485565,86.319038 213.183182,87.205376 212.565063,87.613182 
	C204.336929,93.041794 203.923508,101.687294 203.648300,110.124207 
	C203.488342,115.027817 204.526520,119.970505 204.695251,124.784317 
	C201.959351,123.757385 199.553772,122.841743 197.038391,121.590530 
	C192.058884,117.010895 186.231354,115.851845 179.998413,115.998543 
z"/>
<path fill="#FCD348" opacity="1.000000" stroke="none" 
	d="
M205.025574,124.895615 
	C204.526520,119.970505 203.488342,115.027817 203.648300,110.124207 
	C203.923508,101.687294 204.336929,93.041794 212.565063,87.613182 
	C213.183182,87.205376 213.485565,86.319038 213.980240,85.304520 
	C221.242233,87.087059 228.458725,89.220238 235.631287,91.926666 
	C230.405106,92.552292 226.650421,95.518280 224.844620,100.833832 
	C224.483398,101.897118 223.952148,103.129631 223.108139,103.762375 
	C219.575027,106.411186 220.042709,109.890923 220.261520,113.671837 
	C220.464691,117.182358 219.763504,120.761055 219.297379,124.288185 
	C219.041443,126.224777 218.448715,128.116867 217.637787,129.986603 
	C213.187012,128.261322 209.106293,126.578468 205.025574,124.895615 
z"/>
<path fill="#FCC940" opacity="1.000000" stroke="none" 
	d="
M218.007828,130.029022 
	C218.448715,128.116867 219.041443,126.224777 219.297379,124.288185 
	C219.763504,120.761055 220.464691,117.182358 220.261520,113.671837 
	C220.042709,109.890923 219.575027,106.411186 223.108139,103.762375 
	C223.952148,103.129631 224.483398,101.897118 224.844620,100.833832 
	C226.650421,95.518280 230.405106,92.552292 235.802841,92.240051 
	C239.978180,93.741852 243.938049,95.503525 247.964813,97.610352 
	C245.199585,102.646988 242.262039,107.279198 239.578278,112.054054 
	C238.157059,114.582603 237.085800,117.323097 236.016495,120.031059 
	C233.622818,126.092880 231.329285,132.194244 228.641785,138.628082 
	C224.861679,135.994110 221.434753,133.011566 218.007828,130.029022 
z"/>
<path fill="#F1EA73" opacity="1.000000" stroke="none" 
	d="
M146.640457,94.960541 
	C144.786331,97.016006 142.856949,99.725708 140.232697,100.970535 
	C135.499359,103.215820 132.424347,106.198753 132.581680,112.270508 
	C131.177734,111.488876 130.424377,110.781807 129.599258,110.684700 
	C128.622238,110.569702 126.704941,110.998535 126.708237,111.160988 
	C126.738312,112.644066 126.635551,114.479660 127.450943,115.529037 
	C129.592331,118.284935 129.768356,118.148155 127.492279,120.427559 
	C121.502701,115.822273 121.104759,115.812805 118.505829,120.345413 
	C125.332359,122.058754 131.859787,123.821808 137.617111,117.359810 
	C140.851471,113.729561 145.000671,114.272087 148.866989,118.066994 
	C149.091629,119.092369 149.107498,119.520027 148.727417,120.035263 
	C146.180878,120.460243 144.030319,120.797638 141.879745,121.135040 
	C131.419479,122.282661 122.194740,126.841469 113.089508,131.668396 
	C109.932251,133.342148 106.947678,135.341644 103.505089,136.664032 
	C109.992065,122.067352 121.443817,111.952835 133.170853,101.643913 
	C136.048828,99.884064 138.724579,98.349106 141.469711,96.950317 
	C143.004333,96.168343 144.654114,95.612335 146.640457,94.960541 
z"/>
<path fill="#FCE35C" opacity="1.000000" stroke="none" 
	d="
M211.922195,83.777176 
	C211.710129,83.905006 211.441711,83.728035 211.113632,83.250160 
	C211.327042,83.117775 211.597656,83.292137 211.922195,83.777176 
z"/>
<path fill="#F6235F" opacity="1.000000" stroke="none" 
	d="
M265.002075,209.012939 
	C268.612885,206.562698 272.133698,203.964905 275.854828,201.695526 
	C282.005768,197.944336 288.208466,194.259918 294.561554,190.870056 
	C296.325928,189.928619 298.697479,190.125153 300.801117,189.797943 
	C301.706451,191.731995 302.431946,193.281891 303.514771,194.928772 
	C303.890564,195.457855 303.909058,195.889938 303.897095,196.645142 
	C303.399506,198.487686 302.932343,200.007095 302.731567,201.765991 
	C302.773621,204.098679 302.549286,206.191849 301.789246,208.647522 
	C294.970886,213.133713 288.298828,216.784485 282.531128,221.533539 
	C278.066010,225.210052 274.919861,230.443207 270.833954,234.640350 
	C267.801331,237.755554 264.647064,240.509583 264.344543,245.296494 
	C264.138306,248.560638 264.499695,252.603043 262.756866,254.882904 
	C258.257568,260.768494 265.108154,265.286346 263.692749,270.526306 
	C264.487122,270.714813 265.281525,270.903351 266.075897,271.091888 
	C264.431885,272.499390 262.787842,273.906921 261.083923,275.648682 
	C260.207123,275.887817 259.208435,276.060455 258.605194,275.650787 
	C256.133453,273.972260 254.012848,272.995056 252.138763,276.513306 
	C251.825424,277.101532 249.993637,276.880890 248.460510,277.039581 
	C247.574860,276.711182 247.092178,276.377258 246.263733,275.648682 
	C244.942413,272.974976 245.473358,271.685150 248.168243,272.013214 
	C253.394730,272.649414 253.302856,269.893097 252.595154,265.921997 
	C252.026627,262.731720 252.604950,259.353424 252.441452,256.070129 
	C252.272903,252.685349 251.873444,249.308563 251.475922,245.939972 
	C251.250183,244.026917 249.856140,241.387177 250.650391,240.360443 
	C255.356277,234.276962 260.433258,228.463821 265.640137,222.793625 
	C267.480133,220.789886 270.036682,219.444138 271.319855,218.496658 
	C268.767426,214.665192 266.884766,211.839066 265.002075,209.012939 
z"/>
<path fill="#4983DE" opacity="1.000000" stroke="none" 
	d="
M138.055328,193.950653 
	C138.079346,195.426331 138.103378,196.901993 138.041229,199.009735 
	C138.346893,200.385422 138.738754,201.129028 139.130615,201.872650 
	C139.375504,202.694733 139.620377,203.516815 139.861633,205.093933 
	C140.327423,206.935562 140.796844,208.022156 141.266266,209.108749 
	C141.613922,209.998413 141.961594,210.888062 142.371948,212.125092 
	C142.286865,213.346329 142.139084,214.220200 141.640686,215.592438 
	C136.962997,223.100357 132.840286,230.261536 126.320457,235.601212 
	C125.889923,235.953827 126.021751,236.925217 125.645943,237.423004 
	C121.962349,242.302078 120.593002,250.129379 112.154938,248.050278 
	C110.889984,250.408386 109.904671,252.245178 108.919357,254.082001 
	C108.513451,254.046188 108.107529,254.010361 107.399406,253.937958 
	C106.589211,252.986115 106.081230,252.070862 105.354218,250.908173 
	C105.752106,247.421570 106.946671,244.169983 106.877090,240.945663 
	C106.672371,231.459351 111.008797,223.490829 114.682556,215.267685 
	C116.370644,211.489136 118.006165,207.675125 119.943512,204.024719 
	C121.002350,202.029617 122.264717,199.637772 124.095146,198.659714 
	C128.186172,196.473724 131.705978,192.436981 137.522949,193.774841 
	C137.919952,193.951218 138.055313,193.950653 138.055328,193.950653 
z"/>
<path fill="#1ECAD5" opacity="1.000000" stroke="none" 
	d="
M88.519531,211.977539 
	C87.828835,208.475082 87.467926,205.120239 87.415016,201.562317 
	C88.511818,201.838394 89.300613,202.317551 90.082664,202.792618 
	C91.044754,200.757309 91.854279,199.044769 92.663803,197.332214 
	C93.001778,197.453888 93.339752,197.575546 93.677727,197.697220 
	C93.930244,199.943985 94.182762,202.190765 94.435272,204.437531 
	C94.957466,204.589798 95.479660,204.742081 96.001846,204.894348 
	C94.922516,199.251343 97.489777,196.236526 102.010902,194.347565 
	C103.058266,193.909958 103.420403,192.006653 104.458923,191.341705 
	C107.947136,189.108276 111.729935,185.277405 115.154160,185.520508 
	C119.468658,185.826813 122.275482,184.169708 125.621353,182.679169 
	C128.692841,181.310883 131.890793,180.226440 135.033020,179.016937 
	C130.837692,184.321899 125.969292,189.235962 122.607346,195.024902 
	C117.762337,203.367523 113.807266,212.254517 109.867653,221.085526 
	C107.335945,226.760559 105.514168,232.752274 102.843559,240.052521 
	C100.559250,237.123840 98.245079,235.105713 97.147430,232.562546 
	C94.415108,226.231903 92.246437,219.658493 89.813736,213.196762 
	C89.656044,212.777893 89.178230,212.479538 88.519531,211.977539 
z"/>
<path fill="#1ACECA" opacity="1.000000" stroke="none" 
	d="
M135.286987,178.841431 
	C131.890793,180.226440 128.692841,181.310883 125.621353,182.679169 
	C122.275482,184.169708 119.468658,185.826813 115.154160,185.520508 
	C111.729935,185.277405 107.947136,189.108276 104.458923,191.341705 
	C103.420403,192.006653 103.058266,193.909958 102.010902,194.347565 
	C97.489777,196.236526 94.922516,199.251343 96.001846,204.894348 
	C95.479660,204.742081 94.957466,204.589798 94.435272,204.437531 
	C94.182762,202.190765 93.930244,199.943985 93.677727,197.697220 
	C93.339752,197.575546 93.001778,197.453888 92.663803,197.332214 
	C91.854279,199.044769 91.044754,200.757309 90.082664,202.792618 
	C89.300613,202.317551 88.511818,201.838394 87.445702,201.203186 
	C87.999184,191.263107 88.829979,181.479080 90.215057,171.355637 
	C91.834892,172.656052 93.718857,174.255081 93.803093,175.943863 
	C94.005936,180.010132 97.043442,181.083984 99.521713,180.688889 
	C108.046761,179.329819 116.590126,177.689438 124.844742,175.215912 
	C128.391922,174.153000 130.913284,173.135330 133.233536,177.191772 
	C134.587265,175.737732 135.638977,174.608078 136.169937,174.037750 
	C134.880737,171.146027 133.900757,168.947845 132.920761,166.749664 
	C133.383102,166.486862 133.845459,166.224060 134.307800,165.961258 
	C135.872269,166.970428 137.436752,167.979599 139.263397,168.986191 
	C139.700134,168.974731 139.874695,168.965851 139.919250,169.305603 
	C139.173691,172.079224 138.558136,174.504242 137.942581,176.929245 
	C137.142044,177.508133 136.341507,178.087021 135.286987,178.841431 
z"/>
<path fill="#2FB294" opacity="1.000000" stroke="none" 
	d="
M137.959457,177.248962 
	C138.558136,174.504242 139.173691,172.079224 139.962433,168.954651 
	C143.763718,162.505035 147.391800,156.754990 151.240845,150.901917 
	C151.733383,150.599152 151.921768,150.339157 152.243958,149.910889 
	C152.728531,149.603500 152.918228,149.346588 153.327240,148.881973 
	C163.900208,137.033569 177.741943,132.882492 192.386002,130.743484 
	C192.857880,126.104950 190.825439,124.082390 186.593506,123.667480 
	C182.631912,123.279083 178.716049,122.196342 174.757385,122.055244 
	C167.333389,121.790619 159.890442,121.877296 152.461044,122.054924 
	C150.241516,122.107994 148.036362,123.364479 145.832489,123.340691 
	C141.756454,123.296677 138.158371,127.816811 133.815872,124.542328 
	C136.435806,123.606110 139.055756,122.669899 141.777710,121.434357 
	C144.030319,120.797638 146.180878,120.460243 149.143768,120.103783 
	C156.271362,119.608902 162.586639,119.133072 169.347992,118.771179 
	C171.931549,118.893166 174.069046,118.901207 176.566910,119.061432 
	C181.555191,119.873390 186.183105,120.533180 190.822510,121.224487 
	C190.833969,121.256012 190.870163,121.312500 191.119965,121.569809 
	C192.616440,122.233772 193.881744,122.591286 195.106842,123.054993 
	C203.528000,126.242569 212.061996,129.248871 217.967438,136.664688 
	C206.566528,133.711044 195.015701,132.468689 183.450790,135.177002 
	C162.697205,140.037125 149.312531,153.325226 141.654755,172.838165 
	C140.804993,175.003525 140.051819,177.206787 138.992035,179.618271 
	C138.478928,179.085602 138.227631,178.327148 137.959457,177.248962 
M196.184174,130.256821 
	C196.025787,130.373016 195.867401,130.489212 195.709000,130.605392 
	C195.928909,130.581589 196.148804,130.557800 196.184174,130.256821 
z"/>
<path fill="#2FB294" opacity="1.000000" stroke="none" 
	d="
M138.209320,193.758972 
	C138.055313,193.950653 137.919952,193.951218 137.857300,193.921524 
	C137.851929,193.533234 137.909241,193.174637 138.002045,192.552094 
	C138.176163,192.556946 138.343796,192.815796 138.440552,193.098892 
	C138.485641,193.230820 138.393356,193.409698 138.209320,193.758972 
z"/>
<path fill="#18D4A5" opacity="1.000000" stroke="none" 
	d="
M133.492661,124.569717 
	C138.158371,127.816811 141.756454,123.296677 145.832489,123.340691 
	C148.036362,123.364479 150.241516,122.107994 152.461044,122.054924 
	C159.890442,121.877296 167.333389,121.790619 174.757385,122.055244 
	C178.716049,122.196342 182.631912,123.279083 186.593506,123.667480 
	C190.825439,124.082390 192.857880,126.104950 192.386002,130.743484 
	C177.741943,132.882492 163.900208,137.033569 153.179092,148.564667 
	C152.103867,147.667526 151.559250,146.409317 150.830490,146.291656 
	C145.335556,145.404449 139.815445,144.632797 134.278152,144.072449 
	C132.537094,143.896255 130.667999,144.282913 128.946396,144.743958 
	C122.924911,146.356522 116.942245,148.114090 110.105896,150.054733 
	C110.267441,149.241638 110.229645,149.905853 109.999680,150.495102 
	C109.441505,151.925339 108.881180,153.375107 108.076996,154.664352 
	C107.971085,154.834152 105.655518,153.973495 105.682022,153.824188 
	C105.942726,152.355743 106.541786,150.952469 106.925072,149.499115 
	C107.242584,148.295181 107.399124,147.048782 107.626984,145.821198 
	C106.396362,145.724640 105.164055,145.537567 103.935623,145.560226 
	C102.956512,145.578262 101.982101,145.852173 101.005615,146.012497 
	C101.648888,144.846451 102.292160,143.680405 102.913734,142.170776 
	C102.892036,141.827194 103.187714,141.659821 103.771828,141.776657 
	C107.311607,142.081863 108.167686,140.437546 107.910423,137.821396 
	C108.299576,137.515854 108.688728,137.210297 109.742233,136.905914 
	C111.446045,136.122421 112.485504,135.337769 113.524963,134.553116 
	C113.524971,134.553116 113.601189,134.575943 114.008080,134.694763 
	C115.523003,133.726349 116.631042,132.639130 117.739075,131.551895 
	C119.391129,130.899918 121.043190,130.247940 123.420647,129.694733 
	C124.690483,129.116837 125.234924,128.440201 125.779373,127.763565 
	C125.779366,127.763557 125.817055,127.782555 126.232269,127.862175 
	C128.403915,126.936180 130.160339,125.930557 131.916763,124.924950 
	C132.334320,124.815674 132.751892,124.706398 133.492661,124.569717 
z"/>
<path fill="#2FB294" opacity="1.000000" stroke="none" 
	d="
M131.567169,124.892776 
	C130.160339,125.930557 128.403915,126.936180 126.252586,127.867912 
	C127.644318,126.816223 129.430954,125.838409 131.567169,124.892776 
z"/>
<path fill="#2FB294" opacity="1.000000" stroke="none" 
	d="
M107.586243,137.897247 
	C108.167686,140.437546 107.311607,142.081863 103.938248,141.810806 
	C104.767723,140.476456 106.014893,139.224777 107.586243,137.897247 
z"/>
<path fill="#2FB294" opacity="1.000000" stroke="none" 
	d="
M117.398514,131.610458 
	C116.631042,132.639130 115.523003,133.726349 114.018166,134.656281 
	C114.766884,133.555649 115.912407,132.612335 117.398514,131.610458 
z"/>
<path fill="#2FB294" opacity="1.000000" stroke="none" 
	d="
M113.195251,134.510361 
	C112.485504,135.337769 111.446045,136.122421 109.978340,136.827881 
	C110.655243,135.988312 111.760399,135.227966 113.195251,134.510361 
z"/>
<path fill="#2FB294" opacity="1.000000" stroke="none" 
	d="
M125.444107,127.760788 
	C125.234924,128.440201 124.690483,129.116837 123.755844,129.704620 
	C123.946709,128.996506 124.527771,128.377258 125.444107,127.760788 
z"/>
<path fill="#14D6B3" opacity="1.000000" stroke="none" 
	d="
M100.955429,146.353668 
	C101.982101,145.852173 102.956512,145.578262 103.935623,145.560226 
	C105.164055,145.537567 106.396362,145.724640 107.626984,145.821198 
	C107.399124,147.048782 107.242584,148.295181 106.925072,149.499115 
	C106.541786,150.952469 105.942726,152.355743 105.682022,153.824188 
	C105.655518,153.973495 107.971085,154.834152 108.076996,154.664352 
	C108.881180,153.375107 109.441505,151.925339 109.999680,150.495102 
	C110.229645,149.905853 110.267441,149.241638 110.105896,150.054733 
	C116.942245,148.114090 122.924911,146.356522 128.946396,144.743958 
	C130.667999,144.282913 132.537094,143.896255 134.278152,144.072449 
	C139.815445,144.632797 145.335556,145.404449 150.830490,146.291656 
	C151.559250,146.409317 152.103867,147.667526 152.881897,148.714844 
	C152.918228,149.346588 152.728531,149.603500 152.020813,150.012054 
	C151.303009,150.417526 151.116074,150.678757 151.019882,151.004944 
	C147.391800,156.754990 143.763718,162.505035 140.092438,168.606018 
	C139.874695,168.965851 139.700134,168.974731 139.263794,168.564560 
	C138.868408,160.704468 136.347198,158.413666 129.690872,159.755417 
	C128.081665,160.079788 126.530815,160.753113 124.913551,160.967773 
	C117.230415,161.987549 109.552589,163.171494 101.831886,163.720459 
	C98.917725,163.927658 95.893127,162.581512 92.918869,161.943466 
	C94.461906,158.263702 95.874352,154.520828 97.608177,150.933258 
	C98.369774,149.357376 99.786171,148.097961 100.955429,146.353668 
z"/>
<path fill="#12D5BF" opacity="1.000000" stroke="none" 
	d="
M92.657440,162.200424 
	C95.893127,162.581512 98.917725,163.927658 101.831886,163.720459 
	C109.552589,163.171494 117.230415,161.987549 124.913551,160.967773 
	C126.530815,160.753113 128.081665,160.079788 129.690872,159.755417 
	C136.347198,158.413666 138.868408,160.704468 139.001633,168.567123 
	C137.436752,167.979599 135.872269,166.970428 134.307800,165.961258 
	C133.845459,166.224060 133.383102,166.486862 132.920761,166.749664 
	C133.900757,168.947845 134.880737,171.146027 136.169937,174.037750 
	C135.638977,174.608078 134.587265,175.737732 133.233536,177.191772 
	C130.913284,173.135330 128.391922,174.153000 124.844742,175.215912 
	C116.590126,177.689438 108.046761,179.329819 99.521713,180.688889 
	C97.043442,181.083984 94.005936,180.010132 93.803093,175.943863 
	C93.718857,174.255081 91.834892,172.656052 90.385620,170.997803 
	C90.799934,168.138733 91.597977,165.298050 92.657440,162.200424 
z"/>
<path fill="#F61D5A" opacity="1.000000" stroke="none" 
	d="
M266.061859,271.079285 
	C265.281525,270.903351 264.487122,270.714813 263.692749,270.526306 
	C265.108154,265.286346 258.257568,260.768494 262.756866,254.882904 
	C264.499695,252.603043 264.138306,248.560638 264.344543,245.296494 
	C264.647064,240.509583 267.801331,237.755554 270.833954,234.640350 
	C274.919861,230.443207 278.066010,225.210052 282.531128,221.533539 
	C288.298828,216.784485 294.970886,213.133713 301.626862,209.003784 
	C299.799805,217.107971 298.254486,225.256210 295.037598,233.257370 
	C290.517792,244.499176 283.446503,253.493011 275.995422,262.495117 
	C274.115112,264.766846 271.777618,266.660126 268.990112,268.873657 
	C267.573029,269.699860 266.816010,270.379791 266.059021,271.059692 
	C266.059021,271.059692 266.047821,271.066711 266.061859,271.079285 
M270.446320,261.841858 
	C270.314850,261.041107 270.183411,260.240387 270.051941,259.439636 
	C269.452789,259.868408 268.853638,260.297150 268.254486,260.725922 
	C268.830444,261.257294 269.406433,261.788635 270.446320,261.841858 
z"/>
<path fill="#F6235F" opacity="1.000000" stroke="none" 
	d="
M266.378479,271.033203 
	C266.816010,270.379791 267.573029,269.699860 268.691528,269.024048 
	C268.268005,269.687653 267.482941,270.347198 266.378479,271.033203 
z"/>
<path fill="#6A70D8" opacity="1.000000" stroke="none" 
	d="
M108.988266,254.411301 
	C109.904671,252.245178 110.889984,250.408386 112.154938,248.050278 
	C120.593002,250.129379 121.962349,242.302078 125.645943,237.423004 
	C126.021751,236.925217 125.889923,235.953827 126.320457,235.601212 
	C132.840286,230.261536 136.962997,223.100357 141.635010,216.035065 
	C144.467056,220.168427 146.954147,224.357468 149.715820,228.754532 
	C146.642136,232.998337 143.223709,236.978333 139.960724,241.081924 
	C133.729019,248.919052 127.585869,256.826599 121.107590,264.903290 
	C116.891869,261.647980 112.974518,258.194305 108.988266,254.411301 
z"/>
<path fill="#F52B63" opacity="1.000000" stroke="none" 
	d="
M264.786560,208.753876 
	C266.884766,211.839066 268.767426,214.665192 271.319855,218.496658 
	C270.036682,219.444138 267.480133,220.789886 265.640137,222.793625 
	C260.433258,228.463821 255.356277,234.276962 250.650391,240.360443 
	C249.856140,241.387177 251.250183,244.026917 251.475922,245.939972 
	C251.873444,249.308563 252.272903,252.685349 252.441452,256.070129 
	C252.604950,259.353424 252.026627,262.731720 252.595154,265.921997 
	C253.302856,269.893097 253.394730,272.649414 248.168243,272.013214 
	C245.473358,271.685150 244.942413,272.974976 245.959000,275.621887 
	C240.457001,275.284576 234.900528,274.663818 229.385132,273.785278 
	C228.535370,273.649933 227.186600,272.277740 227.240372,271.566101 
	C227.535095,267.666016 227.465973,263.500549 228.883484,259.973419 
	C231.721451,252.911835 232.091156,253.040375 225.048920,250.865997 
	C221.838516,249.874741 220.075195,248.221451 221.968964,244.330017 
	C229.475464,237.319656 237.850723,231.425690 244.092682,223.788239 
	C248.541656,218.344650 250.121857,210.556488 252.998428,203.410889 
	C258.082123,200.243484 258.013458,200.245560 258.197845,206.352631 
	C258.233276,207.526443 259.043121,208.676895 259.472717,209.779114 
	C261.433075,209.285278 263.002045,208.890030 264.786560,208.753876 
z"/>
<path fill="#C91D6F" opacity="1.000000" stroke="none" 
	d="
M225.747345,276.780396 
	C224.348465,276.609314 222.747513,276.171417 221.104752,275.412781 
	C222.557053,275.565918 224.051147,276.039734 225.747345,276.780396 
z"/>
<path fill="#F52B63" opacity="1.000000" stroke="none" 
	d="
M217.017441,245.349274 
	C217.454910,244.993408 217.892731,244.980392 218.658997,244.969086 
	C219.071060,245.882034 219.154694,246.793274 219.238327,247.704498 
	C218.933167,247.828644 218.628021,247.952789 218.322861,248.076920 
	C217.887833,247.281982 217.452820,246.487045 217.017441,245.349274 
z"/>
<path fill="#C91D6F" opacity="1.000000" stroke="none" 
	d="
M217.790100,274.775635 
	C217.327820,274.877258 216.713150,274.741638 216.082367,274.326447 
	C216.590073,274.210724 217.113907,274.374573 217.790100,274.775635 
z"/>
<path fill="#F9F9F9" opacity="1.000000" stroke="none" 
	d="
M162.327682,202.524063 
	C157.243591,186.169342 162.640991,170.437271 176.190979,161.451996 
	C188.916412,153.013519 206.279556,154.188126 218.466812,164.311920 
	C227.768997,172.039108 231.896332,188.971298 227.661667,202.033279 
	C223.595322,214.576019 211.157730,224.072296 197.803467,225.132294 
	C183.173645,226.293549 168.368286,218.737015 162.327682,202.524063 
M201.962875,184.146881 
	C201.200241,182.772842 200.688492,180.480911 199.629395,180.191391 
	C195.990997,179.196838 192.248230,180.679138 190.994797,183.919220 
	C190.168579,186.054962 192.027679,189.229523 192.969803,193.116455 
	C196.626953,189.637146 199.124557,187.261002 201.962875,184.146881 
z"/>
<path fill="#DAC268" opacity="1.000000" stroke="none" 
	d="
M218.294312,136.828812 
	C212.061996,129.248871 203.528000,126.242569 195.106842,123.054993 
	C193.881744,122.591286 192.616440,122.233772 191.510895,121.472557 
	C193.484100,121.387367 195.316147,121.656738 197.148193,121.926117 
	C199.553772,122.841743 201.959351,123.757385 204.695251,124.784317 
	C209.106293,126.578468 213.187012,128.261322 217.637787,129.986603 
	C221.434753,133.011566 224.861679,135.994110 228.630859,139.030045 
	C231.291397,141.530304 233.861481,143.789566 235.861542,146.473602 
	C238.142242,149.534271 239.914886,152.973557 241.931107,156.610229 
	C240.644913,155.817337 239.095154,154.843658 238.067474,153.477295 
	C232.819885,146.500534 226.455566,140.893021 218.294312,136.828812 
z"/>
<path fill="#695699" opacity="1.000000" stroke="none" 
	d="
M141.392670,208.812653 
	C140.796844,208.022156 140.327423,206.935562 139.894836,205.523865 
	C140.460800,206.304703 140.989929,207.410629 141.392670,208.812653 
z"/>
<path fill="#695699" opacity="1.000000" stroke="none" 
	d="
M139.300598,201.611969 
	C138.738754,201.129028 138.346893,200.385422 137.994049,199.388641 
	C138.512222,199.874084 138.991394,200.612671 139.300598,201.611969 
z"/>
<path fill="#F1EA73" opacity="1.000000" stroke="none" 
	d="
M197.038391,121.590530 
	C195.316147,121.656738 193.484100,121.387367 191.261108,121.215248 
	C190.870163,121.312500 190.833969,121.256012 190.651093,120.902115 
	C186.598862,119.662910 182.729492,118.777611 178.860138,117.892311 
	C179.080139,117.368729 179.300125,116.845154 179.759277,116.160057 
	C186.231354,115.851845 192.058884,117.010895 197.038391,121.590530 
z"/>
<path fill="#DAC268" opacity="1.000000" stroke="none" 
	d="
M168.901947,118.657242 
	C162.586639,119.133072 156.271362,119.608902 149.539734,120.016205 
	C149.107498,119.520027 149.091629,119.092369 149.100372,118.344635 
	C150.762421,118.008865 152.399857,117.993164 154.855270,117.992065 
	C157.155197,117.675293 158.637161,117.343925 160.119110,117.012558 
	C162.747681,117.011208 165.376236,117.009850 168.467773,117.281540 
	C168.921143,117.922150 168.911545,118.289696 168.901947,118.657242 
z"/>
<path fill="#DAC268" opacity="1.000000" stroke="none" 
	d="
M178.574860,117.918091 
	C182.729492,118.777611 186.598862,119.662910 190.639618,120.870590 
	C186.183105,120.533180 181.555191,119.873390 176.644104,118.835876 
	C176.574738,118.206818 176.834885,118.019928 177.141373,117.897461 
	C177.524109,117.912933 177.906860,117.928406 178.574860,117.918091 
z"/>
<path fill="#F1EA73" opacity="1.000000" stroke="none" 
	d="
M177.006256,117.538498 
	C176.834885,118.019928 176.574738,118.206818 176.283752,118.683701 
	C174.069046,118.901207 171.931549,118.893166 169.347992,118.771179 
	C168.911545,118.289696 168.921143,117.922150 168.905823,117.278427 
	C171.544312,117.061356 174.207718,117.120445 177.006256,117.538498 
z"/>
<path fill="#F1EA73" opacity="1.000000" stroke="none" 
	d="
M159.857071,116.751541 
	C158.637161,117.343925 157.155197,117.675293 155.267242,117.967026 
	C156.439163,117.448433 158.017090,116.969475 159.857071,116.751541 
z"/>
<path fill="#18D4A5" opacity="1.000000" stroke="none" 
	d="
M196.276443,130.395416 
	C196.148804,130.557800 195.928909,130.581589 195.709000,130.605392 
	C195.867401,130.489212 196.025787,130.373016 196.276443,130.395416 
z"/>
<path fill="#18D4A5" opacity="1.000000" stroke="none" 
	d="
M151.240845,150.901917 
	C151.116074,150.678757 151.303009,150.417526 151.803818,150.120056 
	C151.921768,150.339157 151.733383,150.599152 151.240845,150.901917 
z"/>
<path fill="#F6235F" opacity="1.000000" stroke="none" 
	d="
M270.214355,262.080933 
	C269.406433,261.788635 268.830444,261.257294 268.254486,260.725922 
	C268.853638,260.297150 269.452789,259.868408 270.051941,259.439636 
	C270.183411,260.240387 270.314850,261.041107 270.214355,262.080933 
z"/>
<path fill="#010101" opacity="1.000000" stroke="none" 
	d="
M201.792511,184.515869 
	C199.124557,187.261002 196.626953,189.637146 192.969803,193.116455 
	C192.027679,189.229523 190.168579,186.054962 190.994797,183.919220 
	C192.248230,180.679138 195.990997,179.196838 199.629395,180.191391 
	C200.688492,180.480911 201.200241,182.772842 201.792511,184.515869 
z"/>
</svg>